<?xml version="1.0" encoding="UTF-8" standalone="no"?>
<!DOCTYPE svg PUBLIC "-//W3C//DTD SVG 1.1//EN"
 "http://www.w3.org/Graphics/SVG/1.1/DTD/svg11.dtd">
<!-- Generated by graphviz version 2.43.0 (0)
 -->
<!-- Title: pairwise Pages: 1 -->
<svg width="523pt" height="448pt"
 viewBox="0.00 0.00 523.00 448.00" xmlns="http://www.w3.org/2000/svg" xmlns:xlink="http://www.w3.org/1999/xlink">
<g id="graph0" class="graph" transform="scale(1 1) rotate(0) translate(4 444)">
<title>pairwise</title>
<!-- a1 -->
<g id="node1" class="node">
<title>a1</title>
<polygon fill="none" stroke="black" points="134,-440 0,-440 0,-387 134,-387 134,-440"/>
<text text-anchor="middle" x="67" y="-424.8" font-family="Times,serif" font-size="14.00">Interaction Dataset(s)</text>
<text text-anchor="middle" x="67" y="-409.8" font-family="Times,serif" font-size="14.00">e.g., foodweb</text>
<text text-anchor="middle" x="67" y="-394.8" font-family="Times,serif" font-size="14.00">Preston et al. 2012</text>
</g>
<!-- c1 -->
<g id="node3" class="node">
<title>c1</title>
<ellipse fill="none" stroke="black" cx="146" cy="-331" rx="28.7" ry="18"/>
<text text-anchor="middle" x="146" y="-327.3" font-family="Times,serif" font-size="14.00">align</text>
</g>
<!-- a1&#45;&gt;c1 -->
<g id="edge1" class="edge">
<title>a1&#45;&gt;c1</title>
<path fill="none" stroke="black" d="M92.43,-386.59C102.78,-376.04 114.62,-363.98 124.53,-353.88"/>
<polygon fill="black" stroke="black" points="127.16,-356.19 131.67,-346.6 122.17,-351.29 127.16,-356.19"/>
</g>
<!-- b1 -->
<g id="node2" class="node">
<title>b1</title>
<polygon fill="none" stroke="black" points="299.5,-440 152.5,-440 152.5,-387 299.5,-387 299.5,-440"/>
<text text-anchor="middle" x="226" y="-424.8" font-family="Times,serif" font-size="14.00">Taxonomic Resource(s)</text>
<text text-anchor="middle" x="226" y="-409.8" font-family="Times,serif" font-size="14.00">e.g., name database</text>
<text text-anchor="middle" x="226" y="-394.8" font-family="Times,serif" font-size="14.00">NCBI Taxonomy</text>
</g>
<!-- b1&#45;&gt;c1 -->
<g id="edge2" class="edge">
<title>b1&#45;&gt;c1</title>
<path fill="none" stroke="black" d="M200.25,-386.59C189.76,-376.04 177.78,-363.98 167.75,-353.88"/>
<polygon fill="black" stroke="black" points="170.04,-351.23 160.51,-346.6 165.08,-356.16 170.04,-351.23"/>
</g>
<!-- e1 -->
<g id="node5" class="node">
<title>e1</title>
<ellipse fill="none" stroke="black" cx="200" cy="-256" rx="27.9" ry="18"/>
<text text-anchor="middle" x="200" y="-252.3" font-family="Times,serif" font-size="14.00">filter</text>
</g>
<!-- c1&#45;&gt;e1 -->
<g id="edge3" class="edge">
<title>c1&#45;&gt;e1</title>
<path fill="none" stroke="black" d="M157.72,-314.16C164.91,-304.43 174.27,-291.78 182.35,-280.86"/>
<polygon fill="black" stroke="black" points="185.36,-282.68 188.49,-272.56 179.73,-278.52 185.36,-282.68"/>
</g>
<!-- d1 -->
<g id="node4" class="node">
<title>d1</title>
<polygon fill="none" stroke="black" points="317.5,-350 192.5,-350 192.5,-312 317.5,-312 317.5,-350"/>
<text text-anchor="middle" x="255" y="-334.8" font-family="Times,serif" font-size="14.00">Taxonomic Range</text>
<text text-anchor="middle" x="255" y="-319.8" font-family="Times,serif" font-size="14.00">e.g., field inventory</text>
</g>
<!-- d1&#45;&gt;e1 -->
<g id="edge4" class="edge">
<title>d1&#45;&gt;e1</title>
<path fill="none" stroke="black" d="M241.4,-311.96C234.35,-302.59 225.63,-291.02 218.02,-280.92"/>
<polygon fill="black" stroke="black" points="220.76,-278.73 211.94,-272.85 215.17,-282.95 220.76,-278.73"/>
</g>
<!-- g1 -->
<g id="node7" class="node">
<title>g1</title>
<ellipse fill="none" stroke="black" cx="259" cy="-181" rx="27.9" ry="18"/>
<text text-anchor="middle" x="259" y="-177.3" font-family="Times,serif" font-size="14.00">filter</text>
</g>
<!-- e1&#45;&gt;g1 -->
<g id="edge5" class="edge">
<title>e1&#45;&gt;g1</title>
<path fill="none" stroke="black" d="M212.51,-239.52C220.49,-229.65 230.98,-216.66 239.98,-205.53"/>
<polygon fill="black" stroke="black" points="242.94,-207.44 246.51,-197.46 237.5,-203.04 242.94,-207.44"/>
</g>
<!-- f1 -->
<g id="node6" class="node">
<title>f1</title>
<polygon fill="none" stroke="black" points="392,-275 246,-275 246,-237 392,-237 392,-275"/>
<text text-anchor="middle" x="319" y="-259.8" font-family="Times,serif" font-size="14.00">Geographic Range</text>
<text text-anchor="middle" x="319" y="-244.8" font-family="Times,serif" font-size="14.00">e.g., Illinois, Wisconsin</text>
</g>
<!-- f1&#45;&gt;g1 -->
<g id="edge6" class="edge">
<title>f1&#45;&gt;g1</title>
<path fill="none" stroke="black" d="M304.17,-236.96C296.28,-227.36 286.5,-215.46 278.06,-205.18"/>
<polygon fill="black" stroke="black" points="280.69,-202.87 271.63,-197.37 275.28,-207.32 280.69,-202.87"/>
</g>
<!-- i1 -->
<g id="node9" class="node">
<title>i1</title>
<ellipse fill="none" stroke="black" cx="334" cy="-107" rx="31.7" ry="18"/>
<text text-anchor="middle" x="334" y="-103.3" font-family="Times,serif" font-size="14.00">adjust</text>
</g>
<!-- g1&#45;&gt;i1 -->
<g id="edge7" class="edge">
<title>g1&#45;&gt;i1</title>
<path fill="none" stroke="black" d="M274.18,-165.43C284.78,-155.25 299.13,-141.48 311.12,-129.97"/>
<polygon fill="black" stroke="black" points="313.8,-132.25 318.59,-122.8 308.95,-127.2 313.8,-132.25"/>
</g>
<!-- h1 -->
<g id="node8" class="node">
<title>h1</title>
<polygon fill="none" stroke="black" points="515,-200 305,-200 305,-162 515,-162 515,-200"/>
<text text-anchor="middle" x="410" y="-184.8" font-family="Times,serif" font-size="14.00">Taxonomic Resolution</text>
<text text-anchor="middle" x="410" y="-169.8" font-family="Times,serif" font-size="14.00">e.g., use only parasite genus names</text>
</g>
<!-- h1&#45;&gt;i1 -->
<g id="edge8" class="edge">
<title>h1&#45;&gt;i1</title>
<path fill="none" stroke="black" d="M390.82,-161.83C380.63,-152.18 368.02,-140.23 357.28,-130.05"/>
<polygon fill="black" stroke="black" points="359.51,-127.34 349.84,-123.01 354.69,-132.42 359.51,-127.34"/>
</g>
<!-- j1 -->
<g id="node10" class="node">
<title>j1</title>
<polygon fill="none" stroke="black" points="396.5,-38 271.5,-38 271.5,0 396.5,0 396.5,-38"/>
<text text-anchor="middle" x="334" y="-22.8" font-family="Times,serif" font-size="14.00">Ecological Network</text>
<text text-anchor="middle" x="334" y="-7.8" font-family="Times,serif" font-size="14.00">Data Package</text>
</g>
<!-- i1&#45;&gt;j1 -->
<g id="edge9" class="edge">
<title>i1&#45;&gt;j1</title>
<path fill="none" stroke="black" d="M334,-88.6C334,-77.06 334,-61.65 334,-48.36"/>
<polygon fill="black" stroke="black" points="337.5,-48.27 334,-38.27 330.5,-48.27 337.5,-48.27"/>
<text text-anchor="middle" x="358.5" y="-59.8" font-family="Times,serif" font-size="14.00">produces</text>
</g>
</g>
</svg>
